<svg version="1.1" xmlns="http://www.w3.org/2000/svg" viewBox="0 0 81.62855542923444 81.62855542923467" width="244.88566628770332" height="244.885666287704">
  <!-- svg-source:excalidraw -->
  
  <defs>
    <style>
      @font-face {
        font-family: "Virgil";
        src: url("https://excalidraw.com/Virgil.woff2");
      }
      @font-face {
        font-family: "Cascadia";
        src: url("https://excalidraw.com/Cascadia.woff2");
      }
    </style>
  </defs>
  <g stroke-linecap="round" transform="translate(9.999999999999773 10) rotate(0 30.814277714617333 30.814277714617333)"><path d="M61.63 30.81 C61.63 32.6, 61.47 34.41, 61.16 36.17 C60.85 37.92, 60.38 39.68, 59.77 41.35 C59.16 43.03, 58.39 44.68, 57.5 46.22 C56.61 47.77, 55.57 49.25, 54.42 50.62 C53.27 51.99, 51.99 53.27, 50.62 54.42 C49.25 55.57, 47.77 56.61, 46.22 57.5 C44.68 58.39, 43.03 59.16, 41.35 59.77 C39.68 60.38, 37.92 60.85, 36.17 61.16 C34.41 61.47, 32.6 61.63, 30.81 61.63 C29.03 61.63, 27.22 61.47, 25.46 61.16 C23.71 60.85, 21.95 60.38, 20.28 59.77 C18.6 59.16, 16.95 58.39, 15.41 57.5 C13.86 56.61, 12.37 55.57, 11.01 54.42 C9.64 53.27, 8.36 51.99, 7.21 50.62 C6.06 49.25, 5.02 47.77, 4.13 46.22 C3.24 44.68, 2.47 43.03, 1.86 41.35 C1.25 39.68, 0.78 37.92, 0.47 36.17 C0.16 34.41, 0 32.6, 0 30.81 C0 29.03, 0.16 27.22, 0.47 25.46 C0.78 23.71, 1.25 21.95, 1.86 20.28 C2.47 18.6, 3.24 16.95, 4.13 15.41 C5.02 13.86, 6.06 12.37, 7.21 11.01 C8.36 9.64, 9.64 8.36, 11.01 7.21 C12.37 6.06, 13.86 5.02, 15.41 4.13 C16.95 3.24, 18.6 2.47, 20.28 1.86 C21.95 1.25, 23.71 0.78, 25.46 0.47 C27.22 0.16, 29.03 0, 30.81 0 C32.6 0, 34.41 0.16, 36.17 0.47 C37.92 0.78, 39.68 1.25, 41.35 1.86 C43.03 2.47, 44.68 3.24, 46.22 4.13 C47.77 5.02, 49.25 6.06, 50.62 7.21 C51.99 8.36, 53.27 9.64, 54.42 11.01 C55.57 12.37, 56.61 13.86, 57.5 15.41 C58.39 16.95, 59.16 18.6, 59.77 20.28 C60.38 21.95, 60.85 23.71, 61.16 25.46 C61.47 27.22, 61.55 29.92, 61.63 30.81 C61.71 31.71, 61.71 29.92, 61.63 30.81" stroke="none" stroke-width="0" fill="#fa5252"></path><path d="M61.63 30.81 C61.63 32.6, 61.47 34.41, 61.16 36.17 C60.85 37.92, 60.38 39.68, 59.77 41.35 C59.16 43.03, 58.39 44.68, 57.5 46.22 C56.61 47.77, 55.57 49.25, 54.42 50.62 C53.27 51.99, 51.99 53.27, 50.62 54.42 C49.25 55.57, 47.77 56.61, 46.22 57.5 C44.68 58.39, 43.03 59.16, 41.35 59.77 C39.68 60.38, 37.92 60.85, 36.17 61.16 C34.41 61.47, 32.6 61.63, 30.81 61.63 C29.03 61.63, 27.22 61.47, 25.46 61.16 C23.71 60.85, 21.95 60.38, 20.28 59.77 C18.6 59.16, 16.95 58.39, 15.41 57.5 C13.86 56.61, 12.37 55.57, 11.01 54.42 C9.64 53.27, 8.36 51.99, 7.21 50.62 C6.06 49.25, 5.02 47.77, 4.13 46.22 C3.24 44.68, 2.47 43.03, 1.86 41.35 C1.25 39.68, 0.78 37.92, 0.47 36.17 C0.16 34.41, 0 32.6, 0 30.81 C0 29.03, 0.16 27.22, 0.47 25.46 C0.78 23.71, 1.25 21.95, 1.86 20.28 C2.47 18.6, 3.24 16.95, 4.13 15.41 C5.02 13.86, 6.06 12.37, 7.21 11.01 C8.36 9.64, 9.64 8.36, 11.01 7.21 C12.37 6.06, 13.86 5.02, 15.41 4.13 C16.95 3.24, 18.6 2.47, 20.28 1.86 C21.95 1.25, 23.71 0.78, 25.46 0.47 C27.22 0.16, 29.03 0, 30.81 0 C32.6 0, 34.41 0.16, 36.17 0.47 C37.92 0.78, 39.68 1.25, 41.35 1.86 C43.03 2.47, 44.68 3.24, 46.22 4.13 C47.77 5.02, 49.25 6.06, 50.62 7.21 C51.99 8.36, 53.27 9.64, 54.42 11.01 C55.57 12.37, 56.61 13.86, 57.5 15.41 C58.39 16.95, 59.16 18.6, 59.77 20.28 C60.38 21.95, 60.85 23.71, 61.16 25.46 C61.47 27.22, 61.55 29.92, 61.63 30.81 C61.71 31.71, 61.71 29.92, 61.63 30.81" stroke="#ffffff" stroke-width="2" fill="none"></path></g><g transform="translate(15.314277714616992 23.814277714617333) rotate(0 25.5 17)"><text x="25.5" y="27" font-family="Cascadia, Segoe UI Emoji" font-size="28px" fill="#ffffff" text-anchor="middle" style="white-space: pre;" direction="ltr">&lt;W&gt;</text></g></svg>